<svg width="110" height="18" viewBox="0 0 110 18" fill="none" xmlns="http://www.w3.org/2000/svg">
<path d="M6.89077 5.368H2.41477L2.42677 13H1.55077V4.6H6.89077V5.368ZM11.7372 6.688V13H10.8852V7.444H7.86123L7.77723 9.004C7.71323 10.316 7.56123 11.324 7.32123 12.028C7.08123 12.732 6.65323 13.084 6.03723 13.084C5.86923 13.084 5.66523 13.052 5.42523 12.988L5.48523 12.256C5.62923 12.288 5.72923 12.304 5.78523 12.304C6.11323 12.304 6.36123 12.152 6.52923 11.848C6.69723 11.544 6.80923 11.168 6.86523 10.72C6.92123 10.272 6.96923 9.68 7.00923 8.944L7.11723 6.688H11.7372ZM16.5813 6.64C17.4053 6.64 18.0373 6.848 18.4773 7.264C18.9173 7.672 19.1373 8.28 19.1373 9.088V13H18.3213V12.016C18.1293 12.344 17.8453 12.6 17.4693 12.784C17.1013 12.968 16.6613 13.06 16.1493 13.06C15.4453 13.06 14.8853 12.892 14.4693 12.556C14.0533 12.22 13.8453 11.776 13.8453 11.224C13.8453 10.688 14.0373 10.256 14.4213 9.928C14.8133 9.6 15.4333 9.436 16.2813 9.436H18.2853V9.052C18.2853 8.508 18.1333 8.096 17.8293 7.816C17.5253 7.528 17.0813 7.384 16.4973 7.384C16.0973 7.384 15.7133 7.452 15.3453 7.588C14.9773 7.716 14.6613 7.896 14.3973 8.128L14.0133 7.492C14.3333 7.22 14.7173 7.012 15.1653 6.868C15.6133 6.716 16.0853 6.64 16.5813 6.64ZM16.2813 12.388C16.7613 12.388 17.1733 12.28 17.5173 12.064C17.8613 11.84 18.1173 11.52 18.2853 11.104V10.072H16.3053C15.2253 10.072 14.6853 10.448 14.6853 11.2C14.6853 11.568 14.8253 11.86 15.1053 12.076C15.3853 12.284 15.7773 12.388 16.2813 12.388ZM25.6754 9.736C26.5314 9.936 26.9594 10.452 26.9594 11.284C26.9594 11.836 26.7554 12.26 26.3474 12.556C25.9394 12.852 25.3314 13 24.5234 13H21.6554V6.688H24.4394C25.1594 6.688 25.7234 6.828 26.1314 7.108C26.5394 7.388 26.7434 7.788 26.7434 8.308C26.7434 8.652 26.6474 8.948 26.4554 9.196C26.2714 9.436 26.0114 9.616 25.6754 9.736ZM22.4834 9.496H24.3794C24.8674 9.496 25.2394 9.404 25.4954 9.22C25.7594 9.036 25.8914 8.768 25.8914 8.416C25.8914 8.064 25.7594 7.8 25.4954 7.624C25.2394 7.448 24.8674 7.36 24.3794 7.36H22.4834V9.496ZM24.4874 12.328C25.0314 12.328 25.4394 12.24 25.7114 12.064C25.9834 11.888 26.1194 11.612 26.1194 11.236C26.1194 10.86 25.9954 10.584 25.7474 10.408C25.4994 10.224 25.1074 10.132 24.5714 10.132H22.4834V12.328H24.4874ZM29.2061 6.688H30.0581V9.484H34.0301V6.688H34.8821V13H34.0301V10.216H30.0581V13H29.2061V6.688ZM39.7258 6.64C40.5498 6.64 41.1818 6.848 41.6218 7.264C42.0618 7.672 42.2818 8.28 42.2818 9.088V13H41.4658V12.016C41.2738 12.344 40.9898 12.6 40.6138 12.784C40.2458 12.968 39.8058 13.06 39.2938 13.06C38.5898 13.06 38.0298 12.892 37.6138 12.556C37.1978 12.22 36.9898 11.776 36.9898 11.224C36.9898 10.688 37.1818 10.256 37.5658 9.928C37.9578 9.6 38.5778 9.436 39.4258 9.436H41.4298V9.052C41.4298 8.508 41.2778 8.096 40.9738 7.816C40.6698 7.528 40.2258 7.384 39.6418 7.384C39.2418 7.384 38.8578 7.452 38.4898 7.588C38.1218 7.716 37.8058 7.896 37.5418 8.128L37.1578 7.492C37.4778 7.22 37.8618 7.012 38.3098 6.868C38.7578 6.716 39.2298 6.64 39.7258 6.64ZM39.4258 12.388C39.9058 12.388 40.3178 12.28 40.6618 12.064C41.0058 11.84 41.2618 11.52 41.4298 11.104V10.072H39.4498C38.3698 10.072 37.8298 10.448 37.8298 11.2C37.8298 11.568 37.9698 11.86 38.2498 12.076C38.5298 12.284 38.9218 12.388 39.4258 12.388ZM49.6479 6.688V13H48.8679V10.912H46.8879H46.6479L45.1839 13H44.2599L45.8319 10.792C45.3439 10.656 44.9679 10.424 44.7039 10.096C44.4399 9.768 44.3079 9.352 44.3079 8.848C44.3079 8.144 44.5479 7.608 45.0279 7.24C45.5079 6.872 46.1639 6.688 46.9959 6.688H49.6479ZM45.1719 8.872C45.1719 9.808 45.7679 10.276 46.9599 10.276H48.8679V7.444H47.0199C45.7879 7.444 45.1719 7.92 45.1719 8.872Z" fill="#333333" fill-opacity="0.7"/>
<g clip-path="url(#clip0_4492_2222)">
<path d="M60.8125 13.6875L62.375 12.125L65.5 9L62.375 5.875L60.8125 4.3125" stroke="#333333" stroke-opacity="0.7" stroke-linecap="round" stroke-linejoin="round"/>
</g>
<path d="M80.8105 4.6H86.9545V5.356H81.6865V8.104H84.4345C85.4265 8.104 86.1785 8.308 86.6905 8.716C87.2105 9.124 87.4705 9.716 87.4705 10.492C87.4705 11.3 87.1905 11.92 86.6305 12.352C86.0785 12.784 85.2825 13 84.2425 13H80.8105V4.6ZM84.2305 12.292C85.0065 12.292 85.5905 12.144 85.9825 11.848C86.3825 11.552 86.5825 11.112 86.5825 10.528C86.5825 9.952 86.3865 9.524 85.9945 9.244C85.6105 8.956 85.0225 8.812 84.2305 8.812H81.6865V12.292H84.2305ZM94.5712 6.688V13H93.7192V7.444H90.6952L90.6112 9.004C90.5472 10.316 90.3952 11.324 90.1552 12.028C89.9152 12.732 89.4872 13.084 88.8712 13.084C88.7032 13.084 88.4992 13.052 88.2592 12.988L88.3192 12.256C88.4632 12.288 88.5632 12.304 88.6192 12.304C88.9472 12.304 89.1952 12.152 89.3632 11.848C89.5312 11.544 89.6432 11.168 89.6992 10.72C89.7552 10.272 89.8032 9.68 89.8432 8.944L89.9512 6.688H94.5712ZM99.8473 13.06C99.2393 13.06 98.6913 12.924 98.2033 12.652C97.7153 12.372 97.3313 11.988 97.0513 11.5C96.7713 11.012 96.6313 10.46 96.6313 9.844C96.6313 9.228 96.7713 8.676 97.0513 8.188C97.3313 7.7 97.7153 7.32 98.2033 7.048C98.6913 6.776 99.2393 6.64 99.8473 6.64C100.455 6.64 101.003 6.776 101.491 7.048C101.979 7.32 102.359 7.7 102.631 8.188C102.911 8.676 103.051 9.228 103.051 9.844C103.051 10.46 102.911 11.012 102.631 11.5C102.359 11.988 101.979 12.372 101.491 12.652C101.003 12.924 100.455 13.06 99.8473 13.06ZM99.8473 12.304C100.295 12.304 100.695 12.204 101.047 12.004C101.407 11.796 101.687 11.504 101.887 11.128C102.087 10.752 102.187 10.324 102.187 9.844C102.187 9.364 102.087 8.936 101.887 8.56C101.687 8.184 101.407 7.896 101.047 7.696C100.695 7.488 100.295 7.384 99.8473 7.384C99.3993 7.384 98.9953 7.488 98.6353 7.696C98.2833 7.896 98.0033 8.184 97.7952 8.56C97.5953 8.936 97.4953 9.364 97.4953 9.844C97.4953 10.324 97.5953 10.752 97.7952 11.128C98.0033 11.504 98.2833 11.796 98.6353 12.004C98.9953 12.204 99.3993 12.304 99.8473 12.304ZM109.586 7.444H105.974V13H105.122V6.688H109.586V7.444Z" fill="#333333" fill-opacity="0.7"/>
<defs>
<clipPath id="clip0_4492_2222">
<rect width="16" height="16" fill="white" transform="matrix(0 1 1 0 55 1)"/>
</clipPath>
</defs>
</svg>
