<svg width="496" height="18" viewBox="0 0 496 18" fill="none" xmlns="http://www.w3.org/2000/svg">
<path d="M6.89077 5.368H2.41477L2.42677 13H1.55077V4.6H6.89077V5.368ZM11.7372 6.688V13H10.8852V7.444H7.86123L7.77723 9.004C7.71323 10.316 7.56123 11.324 7.32123 12.028C7.08123 12.732 6.65323 13.084 6.03723 13.084C5.86923 13.084 5.66523 13.052 5.42523 12.988L5.48523 12.256C5.62923 12.288 5.72923 12.304 5.78523 12.304C6.11323 12.304 6.36123 12.152 6.52923 11.848C6.69723 11.544 6.80923 11.168 6.86523 10.72C6.92123 10.272 6.96923 9.68 7.00923 8.944L7.11723 6.688H11.7372ZM16.5813 6.64C17.4053 6.64 18.0373 6.848 18.4773 7.264C18.9173 7.672 19.1373 8.28 19.1373 9.088V13H18.3213V12.016C18.1293 12.344 17.8453 12.6 17.4693 12.784C17.1013 12.968 16.6613 13.06 16.1493 13.06C15.4453 13.06 14.8853 12.892 14.4693 12.556C14.0533 12.22 13.8453 11.776 13.8453 11.224C13.8453 10.688 14.0373 10.256 14.4213 9.928C14.8133 9.6 15.4333 9.436 16.2813 9.436H18.2853V9.052C18.2853 8.508 18.1333 8.096 17.8293 7.816C17.5253 7.528 17.0813 7.384 16.4973 7.384C16.0973 7.384 15.7133 7.452 15.3453 7.588C14.9773 7.716 14.6613 7.896 14.3973 8.128L14.0133 7.492C14.3333 7.22 14.7173 7.012 15.1653 6.868C15.6133 6.716 16.0853 6.64 16.5813 6.64ZM16.2813 12.388C16.7613 12.388 17.1733 12.28 17.5173 12.064C17.8613 11.84 18.1173 11.52 18.2853 11.104V10.072H16.3053C15.2253 10.072 14.6853 10.448 14.6853 11.2C14.6853 11.568 14.8253 11.86 15.1053 12.076C15.3853 12.284 15.7773 12.388 16.2813 12.388ZM25.6754 9.736C26.5314 9.936 26.9594 10.452 26.9594 11.284C26.9594 11.836 26.7554 12.26 26.3474 12.556C25.9394 12.852 25.3314 13 24.5234 13H21.6554V6.688H24.4394C25.1594 6.688 25.7234 6.828 26.1314 7.108C26.5394 7.388 26.7434 7.788 26.7434 8.308C26.7434 8.652 26.6474 8.948 26.4554 9.196C26.2714 9.436 26.0114 9.616 25.6754 9.736ZM22.4834 9.496H24.3794C24.8674 9.496 25.2394 9.404 25.4954 9.22C25.7594 9.036 25.8914 8.768 25.8914 8.416C25.8914 8.064 25.7594 7.8 25.4954 7.624C25.2394 7.448 24.8674 7.36 24.3794 7.36H22.4834V9.496ZM24.4874 12.328C25.0314 12.328 25.4394 12.24 25.7114 12.064C25.9834 11.888 26.1194 11.612 26.1194 11.236C26.1194 10.86 25.9954 10.584 25.7474 10.408C25.4994 10.224 25.1074 10.132 24.5714 10.132H22.4834V12.328H24.4874ZM29.2061 6.688H30.0581V9.484H34.0301V6.688H34.8821V13H34.0301V10.216H30.0581V13H29.2061V6.688ZM39.7258 6.64C40.5498 6.64 41.1818 6.848 41.6218 7.264C42.0618 7.672 42.2818 8.28 42.2818 9.088V13H41.4658V12.016C41.2738 12.344 40.9898 12.6 40.6138 12.784C40.2458 12.968 39.8058 13.06 39.2938 13.06C38.5898 13.06 38.0298 12.892 37.6138 12.556C37.1978 12.22 36.9898 11.776 36.9898 11.224C36.9898 10.688 37.1818 10.256 37.5658 9.928C37.9578 9.6 38.5778 9.436 39.4258 9.436H41.4298V9.052C41.4298 8.508 41.2778 8.096 40.9738 7.816C40.6698 7.528 40.2258 7.384 39.6418 7.384C39.2418 7.384 38.8578 7.452 38.4898 7.588C38.1218 7.716 37.8058 7.896 37.5418 8.128L37.1578 7.492C37.4778 7.22 37.8618 7.012 38.3098 6.868C38.7578 6.716 39.2298 6.64 39.7258 6.64ZM39.4258 12.388C39.9058 12.388 40.3178 12.28 40.6618 12.064C41.0058 11.84 41.2618 11.52 41.4298 11.104V10.072H39.4498C38.3698 10.072 37.8298 10.448 37.8298 11.2C37.8298 11.568 37.9698 11.86 38.2498 12.076C38.5298 12.284 38.9218 12.388 39.4258 12.388ZM49.6479 6.688V13H48.8679V10.912H46.8879H46.6479L45.1839 13H44.2599L45.8319 10.792C45.3439 10.656 44.9679 10.424 44.7039 10.096C44.4399 9.768 44.3079 9.352 44.3079 8.848C44.3079 8.144 44.5479 7.608 45.0279 7.24C45.5079 6.872 46.1639 6.688 46.9959 6.688H49.6479ZM45.1719 8.872C45.1719 9.808 45.7679 10.276 46.9599 10.276H48.8679V7.444H47.0199C45.7879 7.444 45.1719 7.92 45.1719 8.872Z" fill="#333333" fill-opacity="0.7"/>
<g clip-path="url(#clip0_4492_1233)">
<path d="M60.8125 13.6875L62.375 12.125L65.5 9L62.375 5.875L60.8125 4.3125" stroke="#333333" stroke-opacity="0.7" stroke-linecap="round" stroke-linejoin="round"/>
</g>
<path d="M80.8105 4.6H86.9545V5.356H81.6865V8.104H84.4345C85.4265 8.104 86.1785 8.308 86.6905 8.716C87.2105 9.124 87.4705 9.716 87.4705 10.492C87.4705 11.3 87.1905 11.92 86.6305 12.352C86.0785 12.784 85.2825 13 84.2425 13H80.8105V4.6ZM84.2305 12.292C85.0065 12.292 85.5905 12.144 85.9825 11.848C86.3825 11.552 86.5825 11.112 86.5825 10.528C86.5825 9.952 86.3865 9.524 85.9945 9.244C85.6105 8.956 85.0225 8.812 84.2305 8.812H81.6865V12.292H84.2305ZM94.5712 6.688V13H93.7192V7.444H90.6952L90.6112 9.004C90.5472 10.316 90.3952 11.324 90.1552 12.028C89.9152 12.732 89.4872 13.084 88.8712 13.084C88.7032 13.084 88.4992 13.052 88.2592 12.988L88.3192 12.256C88.4632 12.288 88.5632 12.304 88.6192 12.304C88.9472 12.304 89.1952 12.152 89.3632 11.848C89.5312 11.544 89.6432 11.168 89.6992 10.72C89.7552 10.272 89.8032 9.68 89.8432 8.944L89.9512 6.688H94.5712ZM99.8473 13.06C99.2393 13.06 98.6913 12.924 98.2033 12.652C97.7153 12.372 97.3313 11.988 97.0513 11.5C96.7713 11.012 96.6313 10.46 96.6313 9.844C96.6313 9.228 96.7713 8.676 97.0513 8.188C97.3313 7.7 97.7153 7.32 98.2033 7.048C98.6913 6.776 99.2393 6.64 99.8473 6.64C100.455 6.64 101.003 6.776 101.491 7.048C101.979 7.32 102.359 7.7 102.631 8.188C102.911 8.676 103.051 9.228 103.051 9.844C103.051 10.46 102.911 11.012 102.631 11.5C102.359 11.988 101.979 12.372 101.491 12.652C101.003 12.924 100.455 13.06 99.8473 13.06ZM99.8473 12.304C100.295 12.304 100.695 12.204 101.047 12.004C101.407 11.796 101.687 11.504 101.887 11.128C102.087 10.752 102.187 10.324 102.187 9.844C102.187 9.364 102.087 8.936 101.887 8.56C101.687 8.184 101.407 7.896 101.047 7.696C100.695 7.488 100.295 7.384 99.8473 7.384C99.3993 7.384 98.9953 7.488 98.6353 7.696C98.2833 7.896 98.0033 8.184 97.7952 8.56C97.5953 8.936 97.4953 9.364 97.4953 9.844C97.4953 10.324 97.5953 10.752 97.7952 11.128C98.0033 11.504 98.2833 11.796 98.6353 12.004C98.9953 12.204 99.3993 12.304 99.8473 12.304ZM109.586 7.444H105.974V13H105.122V6.688H109.586V7.444Z" fill="#333333" fill-opacity="0.7"/>
<g clip-path="url(#clip1_4492_1233)">
<path d="M119.812 13.6875L121.375 12.125L124.5 9L121.375 5.875L119.812 4.3125" stroke="#333333" stroke-opacity="0.7" stroke-linecap="round" stroke-linejoin="round"/>
</g>
<path d="M142.2 9.148H140.28V13H139.416V4.6H140.28V8.368H142.2L145.044 4.6H146.004L142.884 8.68L146.184 13H145.164L142.2 9.148ZM149.872 6.64C150.696 6.64 151.328 6.848 151.768 7.264C152.208 7.672 152.428 8.28 152.428 9.088V13H151.612V12.016C151.42 12.344 151.136 12.6 150.76 12.784C150.392 12.968 149.952 13.06 149.44 13.06C148.736 13.06 148.176 12.892 147.76 12.556C147.344 12.22 147.136 11.776 147.136 11.224C147.136 10.688 147.328 10.256 147.712 9.928C148.104 9.6 148.724 9.436 149.572 9.436H151.576V9.052C151.576 8.508 151.424 8.096 151.12 7.816C150.816 7.528 150.372 7.384 149.788 7.384C149.388 7.384 149.004 7.452 148.636 7.588C148.268 7.716 147.952 7.896 147.688 8.128L147.304 7.492C147.624 7.22 148.008 7.012 148.456 6.868C148.904 6.716 149.376 6.64 149.872 6.64ZM149.572 12.388C150.052 12.388 150.464 12.28 150.808 12.064C151.152 11.84 151.408 11.52 151.576 11.104V10.072H149.596C148.516 10.072 147.976 10.448 147.976 11.2C147.976 11.568 148.116 11.86 148.396 12.076C148.676 12.284 149.068 12.388 149.572 12.388ZM157.238 10.192H155.798V13H154.946V6.688H155.798V9.46H157.25L159.47 6.688H160.394L157.91 9.748L160.574 13H159.566L157.238 10.192ZM165.56 6.688H166.412V9.484H170.384V6.688H171.236V13H170.384V10.216H166.412V13H165.56V6.688ZM179.427 10.108H174.147C174.195 10.764 174.447 11.296 174.903 11.704C175.359 12.104 175.935 12.304 176.631 12.304C177.023 12.304 177.383 12.236 177.711 12.1C178.039 11.956 178.323 11.748 178.563 11.476L179.043 12.028C178.763 12.364 178.411 12.62 177.987 12.796C177.571 12.972 177.111 13.06 176.607 13.06C175.959 13.06 175.383 12.924 174.879 12.652C174.383 12.372 173.995 11.988 173.715 11.5C173.435 11.012 173.295 10.46 173.295 9.844C173.295 9.228 173.427 8.676 173.691 8.188C173.963 7.7 174.331 7.32 174.795 7.048C175.267 6.776 175.795 6.64 176.379 6.64C176.963 6.64 177.487 6.776 177.951 7.048C178.415 7.32 178.779 7.7 179.043 8.188C179.307 8.668 179.439 9.22 179.439 9.844L179.427 10.108ZM176.379 7.372C175.771 7.372 175.259 7.568 174.843 7.96C174.435 8.344 174.203 8.848 174.147 9.472H178.623C178.567 8.848 178.331 8.344 177.915 7.96C177.507 7.568 176.995 7.372 176.379 7.372ZM190.33 6.688L187.174 13.756C186.918 14.348 186.622 14.768 186.286 15.016C185.95 15.264 185.546 15.388 185.074 15.388C184.77 15.388 184.486 15.34 184.222 15.244C183.958 15.148 183.73 15.004 183.538 14.812L183.934 14.176C184.254 14.496 184.638 14.656 185.086 14.656C185.374 14.656 185.618 14.576 185.818 14.416C186.026 14.256 186.218 13.984 186.394 13.6L186.67 12.988L183.85 6.688H184.738L187.114 12.052L189.49 6.688H190.33ZM196.371 7.444H193.983V13H193.131V7.444H190.743V6.688H196.371V7.444ZM200.164 13.06C199.556 13.06 199.008 12.924 198.52 12.652C198.032 12.372 197.648 11.988 197.368 11.5C197.088 11.012 196.948 10.46 196.948 9.844C196.948 9.228 197.088 8.676 197.368 8.188C197.648 7.7 198.032 7.32 198.52 7.048C199.008 6.776 199.556 6.64 200.164 6.64C200.772 6.64 201.32 6.776 201.808 7.048C202.296 7.32 202.676 7.7 202.948 8.188C203.228 8.676 203.368 9.228 203.368 9.844C203.368 10.46 203.228 11.012 202.948 11.5C202.676 11.988 202.296 12.372 201.808 12.652C201.32 12.924 200.772 13.06 200.164 13.06ZM200.164 12.304C200.612 12.304 201.012 12.204 201.364 12.004C201.724 11.796 202.004 11.504 202.204 11.128C202.404 10.752 202.504 10.324 202.504 9.844C202.504 9.364 202.404 8.936 202.204 8.56C202.004 8.184 201.724 7.896 201.364 7.696C201.012 7.488 200.612 7.384 200.164 7.384C199.716 7.384 199.312 7.488 198.952 7.696C198.6 7.896 198.32 8.184 198.112 8.56C197.912 8.936 197.812 9.364 197.812 9.844C197.812 10.324 197.912 10.752 198.112 11.128C198.32 11.504 198.6 11.796 198.952 12.004C199.312 12.204 199.716 12.304 200.164 12.304ZM205.439 6.688H206.291V9.484H210.263V6.688H211.115V13H210.263V10.216H206.291V13H205.439V6.688ZM219.15 6.688L215.994 13.756C215.738 14.348 215.442 14.768 215.106 15.016C214.77 15.264 214.366 15.388 213.894 15.388C213.59 15.388 213.306 15.34 213.042 15.244C212.778 15.148 212.55 15.004 212.358 14.812L212.754 14.176C213.074 14.496 213.458 14.656 213.906 14.656C214.194 14.656 214.438 14.576 214.638 14.416C214.846 14.256 215.038 13.984 215.214 13.6L215.49 12.988L212.67 6.688H213.558L215.934 12.052L218.31 6.688H219.15ZM225.191 7.444H222.803V13H221.951V7.444H219.563V6.688H225.191V7.444ZM229.385 8.92C230.177 8.928 230.777 9.104 231.185 9.448C231.601 9.792 231.809 10.288 231.809 10.936C231.809 11.608 231.585 12.124 231.137 12.484C230.697 12.844 230.057 13.02 229.217 13.012L226.673 13V6.688H227.525V8.896L229.385 8.92ZM229.169 12.364C229.753 12.372 230.193 12.256 230.489 12.016C230.793 11.768 230.945 11.408 230.945 10.936C230.945 10.472 230.797 10.128 230.501 9.904C230.205 9.68 229.761 9.564 229.169 9.556L227.525 9.532V12.34L229.169 12.364ZM241.095 9.736C241.951 9.936 242.379 10.452 242.379 11.284C242.379 11.836 242.175 12.26 241.767 12.556C241.359 12.852 240.751 13 239.943 13H237.075V6.688H239.859C240.579 6.688 241.143 6.828 241.551 7.108C241.959 7.388 242.163 7.788 242.163 8.308C242.163 8.652 242.067 8.948 241.875 9.196C241.691 9.436 241.431 9.616 241.095 9.736ZM237.903 9.496H239.799C240.287 9.496 240.659 9.404 240.915 9.22C241.179 9.036 241.311 8.768 241.311 8.416C241.311 8.064 241.179 7.8 240.915 7.624C240.659 7.448 240.287 7.36 239.799 7.36H237.903V9.496ZM239.907 12.328C240.451 12.328 240.859 12.24 241.131 12.064C241.403 11.888 241.539 11.612 241.539 11.236C241.539 10.86 241.415 10.584 241.167 10.408C240.919 10.224 240.527 10.132 239.991 10.132H237.903V12.328H239.907ZM252.457 7.444H250.069V13H249.217V7.444H246.829V6.688H252.457V7.444ZM257.191 6.64C257.783 6.64 258.319 6.776 258.799 7.048C259.279 7.312 259.655 7.688 259.927 8.176C260.199 8.664 260.335 9.22 260.335 9.844C260.335 10.476 260.199 11.036 259.927 11.524C259.655 12.012 259.279 12.392 258.799 12.664C258.327 12.928 257.791 13.06 257.191 13.06C256.679 13.06 256.215 12.956 255.799 12.748C255.391 12.532 255.055 12.22 254.791 11.812V15.328H253.939V6.688H254.755V7.936C255.011 7.52 255.347 7.2 255.763 6.976C256.187 6.752 256.663 6.64 257.191 6.64ZM257.131 12.304C257.571 12.304 257.971 12.204 258.331 12.004C258.691 11.796 258.971 11.504 259.171 11.128C259.379 10.752 259.483 10.324 259.483 9.844C259.483 9.364 259.379 8.94 259.171 8.572C258.971 8.196 258.691 7.904 258.331 7.696C257.971 7.488 257.571 7.384 257.131 7.384C256.683 7.384 256.279 7.488 255.919 7.696C255.567 7.904 255.287 8.196 255.079 8.572C254.879 8.94 254.779 9.364 254.779 9.844C254.779 10.324 254.879 10.752 255.079 11.128C255.287 11.504 255.567 11.796 255.919 12.004C256.279 12.204 256.683 12.304 257.131 12.304ZM267.935 10.108H262.655C262.703 10.764 262.955 11.296 263.411 11.704C263.867 12.104 264.443 12.304 265.139 12.304C265.531 12.304 265.891 12.236 266.219 12.1C266.547 11.956 266.831 11.748 267.071 11.476L267.551 12.028C267.271 12.364 266.919 12.62 266.495 12.796C266.079 12.972 265.619 13.06 265.115 13.06C264.467 13.06 263.891 12.924 263.387 12.652C262.891 12.372 262.503 11.988 262.223 11.5C261.943 11.012 261.803 10.46 261.803 9.844C261.803 9.228 261.935 8.676 262.199 8.188C262.471 7.7 262.839 7.32 263.303 7.048C263.775 6.776 264.303 6.64 264.887 6.64C265.471 6.64 265.995 6.776 266.459 7.048C266.923 7.32 267.287 7.7 267.551 8.188C267.815 8.668 267.947 9.22 267.947 9.844L267.935 10.108ZM264.887 7.372C264.279 7.372 263.767 7.568 263.351 7.96C262.943 8.344 262.711 8.848 262.655 9.472H267.131C267.075 8.848 266.839 8.344 266.423 7.96C266.015 7.568 265.503 7.372 264.887 7.372ZM274.103 9.736C274.959 9.936 275.387 10.452 275.387 11.284C275.387 11.836 275.183 12.26 274.775 12.556C274.367 12.852 273.759 13 272.951 13H270.083V6.688H272.867C273.587 6.688 274.151 6.828 274.559 7.108C274.967 7.388 275.171 7.788 275.171 8.308C275.171 8.652 275.075 8.948 274.883 9.196C274.699 9.436 274.439 9.616 274.103 9.736ZM270.911 9.496H272.807C273.295 9.496 273.667 9.404 273.923 9.22C274.187 9.036 274.319 8.768 274.319 8.416C274.319 8.064 274.187 7.8 273.923 7.624C273.667 7.448 273.295 7.36 272.807 7.36H270.911V9.496ZM272.915 12.328C273.459 12.328 273.867 12.24 274.139 12.064C274.411 11.888 274.547 11.612 274.547 11.236C274.547 10.86 274.423 10.584 274.175 10.408C273.927 10.224 273.535 10.132 272.999 10.132H270.911V12.328H272.915ZM280.238 13.06C279.63 13.06 279.082 12.924 278.594 12.652C278.106 12.372 277.722 11.988 277.442 11.5C277.162 11.012 277.022 10.46 277.022 9.844C277.022 9.228 277.162 8.676 277.442 8.188C277.722 7.7 278.106 7.32 278.594 7.048C279.082 6.776 279.63 6.64 280.238 6.64C280.846 6.64 281.394 6.776 281.882 7.048C282.37 7.32 282.75 7.7 283.022 8.188C283.302 8.676 283.442 9.228 283.442 9.844C283.442 10.46 283.302 11.012 283.022 11.5C282.75 11.988 282.37 12.372 281.882 12.652C281.394 12.924 280.846 13.06 280.238 13.06ZM280.238 12.304C280.686 12.304 281.086 12.204 281.438 12.004C281.798 11.796 282.078 11.504 282.278 11.128C282.478 10.752 282.578 10.324 282.578 9.844C282.578 9.364 282.478 8.936 282.278 8.56C282.078 8.184 281.798 7.896 281.438 7.696C281.086 7.488 280.686 7.384 280.238 7.384C279.79 7.384 279.386 7.488 279.026 7.696C278.674 7.896 278.394 8.184 278.186 8.56C277.986 8.936 277.886 9.364 277.886 9.844C277.886 10.324 277.986 10.752 278.186 11.128C278.394 11.504 278.674 11.796 279.026 12.004C279.386 12.204 279.79 12.304 280.238 12.304ZM289.977 7.444H286.365V13H285.513V6.688H289.977V7.444ZM296.685 10.108H291.405C291.453 10.764 291.705 11.296 292.161 11.704C292.617 12.104 293.193 12.304 293.889 12.304C294.281 12.304 294.641 12.236 294.969 12.1C295.297 11.956 295.581 11.748 295.821 11.476L296.301 12.028C296.021 12.364 295.669 12.62 295.245 12.796C294.829 12.972 294.369 13.06 293.865 13.06C293.217 13.06 292.641 12.924 292.137 12.652C291.641 12.372 291.253 11.988 290.973 11.5C290.693 11.012 290.553 10.46 290.553 9.844C290.553 9.228 290.685 8.676 290.949 8.188C291.221 7.7 291.589 7.32 292.053 7.048C292.525 6.776 293.053 6.64 293.637 6.64C294.221 6.64 294.745 6.776 295.209 7.048C295.673 7.32 296.037 7.7 296.301 8.188C296.565 8.668 296.697 9.22 296.697 9.844L296.685 10.108ZM293.637 7.372C293.029 7.372 292.517 7.568 292.101 7.96C291.693 8.344 291.461 8.848 291.405 9.472H295.881C295.825 8.848 295.589 8.344 295.173 7.96C294.765 7.568 294.253 7.372 293.637 7.372ZM302.224 6.688H303.076V11.704L307.288 6.688H308.044V13H307.192V7.984L302.992 13H302.224V6.688ZM319.49 6.688L316.334 13.756C316.078 14.348 315.782 14.768 315.446 15.016C315.11 15.264 314.706 15.388 314.234 15.388C313.93 15.388 313.646 15.34 313.382 15.244C313.118 15.148 312.89 15.004 312.698 14.812L313.094 14.176C313.414 14.496 313.798 14.656 314.246 14.656C314.534 14.656 314.778 14.576 314.978 14.416C315.186 14.256 315.378 13.984 315.554 13.6L315.83 12.988L313.01 6.688H313.898L316.274 12.052L318.65 6.688H319.49ZM326.731 6.688V13H325.879V7.444H321.919V13H321.067V6.688H326.731ZM332.655 6.64C333.247 6.64 333.783 6.776 334.263 7.048C334.743 7.312 335.119 7.688 335.391 8.176C335.663 8.664 335.799 9.22 335.799 9.844C335.799 10.476 335.663 11.036 335.391 11.524C335.119 12.012 334.743 12.392 334.263 12.664C333.791 12.928 333.255 13.06 332.655 13.06C332.143 13.06 331.679 12.956 331.263 12.748C330.855 12.532 330.519 12.22 330.255 11.812V15.328H329.403V6.688H330.219V7.936C330.475 7.52 330.811 7.2 331.227 6.976C331.651 6.752 332.127 6.64 332.655 6.64ZM332.595 12.304C333.035 12.304 333.435 12.204 333.795 12.004C334.155 11.796 334.435 11.504 334.635 11.128C334.843 10.752 334.947 10.324 334.947 9.844C334.947 9.364 334.843 8.94 334.635 8.572C334.435 8.196 334.155 7.904 333.795 7.696C333.435 7.488 333.035 7.384 332.595 7.384C332.147 7.384 331.743 7.488 331.383 7.696C331.031 7.904 330.751 8.196 330.543 8.572C330.343 8.94 330.243 9.364 330.243 9.844C330.243 10.324 330.343 10.752 330.543 11.128C330.751 11.504 331.031 11.796 331.383 12.004C331.743 12.204 332.147 12.304 332.595 12.304ZM340.017 6.64C340.841 6.64 341.473 6.848 341.913 7.264C342.353 7.672 342.573 8.28 342.573 9.088V13H341.757V12.016C341.565 12.344 341.281 12.6 340.905 12.784C340.537 12.968 340.097 13.06 339.585 13.06C338.881 13.06 338.321 12.892 337.905 12.556C337.489 12.22 337.281 11.776 337.281 11.224C337.281 10.688 337.473 10.256 337.857 9.928C338.249 9.6 338.869 9.436 339.717 9.436H341.721V9.052C341.721 8.508 341.569 8.096 341.265 7.816C340.961 7.528 340.517 7.384 339.933 7.384C339.533 7.384 339.149 7.452 338.781 7.588C338.413 7.716 338.097 7.896 337.833 8.128L337.449 7.492C337.769 7.22 338.153 7.012 338.601 6.868C339.049 6.716 339.521 6.64 340.017 6.64ZM339.717 12.388C340.197 12.388 340.609 12.28 340.953 12.064C341.297 11.84 341.553 11.52 341.721 11.104V10.072H339.741C338.661 10.072 338.121 10.448 338.121 11.2C338.121 11.568 338.261 11.86 338.541 12.076C338.821 12.284 339.213 12.388 339.717 12.388ZM349.111 9.736C349.967 9.936 350.395 10.452 350.395 11.284C350.395 11.836 350.191 12.26 349.783 12.556C349.375 12.852 348.767 13 347.959 13H345.091V6.688H347.875C348.595 6.688 349.159 6.828 349.567 7.108C349.975 7.388 350.179 7.788 350.179 8.308C350.179 8.652 350.083 8.948 349.891 9.196C349.707 9.436 349.447 9.616 349.111 9.736ZM345.919 9.496H347.815C348.303 9.496 348.675 9.404 348.931 9.22C349.195 9.036 349.327 8.768 349.327 8.416C349.327 8.064 349.195 7.8 348.931 7.624C348.675 7.448 348.303 7.36 347.815 7.36H345.919V9.496ZM347.923 12.328C348.467 12.328 348.875 12.24 349.147 12.064C349.419 11.888 349.555 11.612 349.555 11.236C349.555 10.86 349.431 10.584 349.183 10.408C348.935 10.224 348.543 10.132 348.007 10.132H345.919V12.328H347.923ZM357.802 6.688V13H356.95V7.444H353.926L353.842 9.004C353.778 10.316 353.626 11.324 353.386 12.028C353.146 12.732 352.718 13.084 352.102 13.084C351.934 13.084 351.73 13.052 351.49 12.988L351.55 12.256C351.694 12.288 351.794 12.304 351.85 12.304C352.178 12.304 352.426 12.152 352.594 11.848C352.762 11.544 352.874 11.168 352.93 10.72C352.986 10.272 353.034 9.68 353.074 8.944L353.182 6.688H357.802ZM365.322 6.688V13H364.542V10.912H362.562H362.322L360.858 13H359.934L361.506 10.792C361.018 10.656 360.642 10.424 360.378 10.096C360.114 9.768 359.982 9.352 359.982 8.848C359.982 8.144 360.222 7.608 360.702 7.24C361.182 6.872 361.838 6.688 362.67 6.688H365.322ZM360.846 8.872C360.846 9.808 361.442 10.276 362.634 10.276H364.542V7.444H362.694C361.462 7.444 360.846 7.92 360.846 8.872ZM372.441 7.444H370.053V13H369.201V7.444H366.813V6.688H372.441V7.444ZM376.635 8.92C377.427 8.928 378.027 9.104 378.435 9.448C378.851 9.792 379.059 10.288 379.059 10.936C379.059 11.608 378.835 12.124 378.387 12.484C377.947 12.844 377.307 13.02 376.467 13.012L373.923 13V6.688H374.775V8.896L376.635 8.92ZM376.419 12.364C377.003 12.372 377.443 12.256 377.739 12.016C378.043 11.768 378.195 11.408 378.195 10.936C378.195 10.472 378.047 10.128 377.751 9.904C377.455 9.68 377.011 9.564 376.419 9.556L374.775 9.532V12.34L376.419 12.364ZM386.965 13.06C386.341 13.06 385.781 12.924 385.285 12.652C384.797 12.38 384.413 12 384.133 11.512C383.853 11.016 383.713 10.46 383.713 9.844C383.713 9.228 383.853 8.676 384.133 8.188C384.413 7.7 384.797 7.32 385.285 7.048C385.781 6.776 386.341 6.64 386.965 6.64C387.509 6.64 387.993 6.748 388.417 6.964C388.849 7.172 389.189 7.48 389.437 7.888L388.801 8.32C388.593 8.008 388.329 7.776 388.009 7.624C387.689 7.464 387.341 7.384 386.965 7.384C386.509 7.384 386.097 7.488 385.729 7.696C385.369 7.896 385.085 8.184 384.877 8.56C384.677 8.936 384.577 9.364 384.577 9.844C384.577 10.332 384.677 10.764 384.877 11.14C385.085 11.508 385.369 11.796 385.729 12.004C386.097 12.204 386.509 12.304 386.965 12.304C387.341 12.304 387.689 12.228 388.009 12.076C388.329 11.924 388.593 11.692 388.801 11.38L389.437 11.812C389.189 12.22 388.849 12.532 388.417 12.748C387.985 12.956 387.501 13.06 386.965 13.06ZM395.357 9.736C396.213 9.936 396.641 10.452 396.641 11.284C396.641 11.836 396.437 12.26 396.029 12.556C395.621 12.852 395.013 13 394.205 13H391.337V6.688H394.121C394.841 6.688 395.405 6.828 395.813 7.108C396.221 7.388 396.425 7.788 396.425 8.308C396.425 8.652 396.329 8.948 396.137 9.196C395.953 9.436 395.693 9.616 395.357 9.736ZM392.165 9.496H394.061C394.549 9.496 394.921 9.404 395.177 9.22C395.441 9.036 395.573 8.768 395.573 8.416C395.573 8.064 395.441 7.8 395.177 7.624C394.921 7.448 394.549 7.36 394.061 7.36H392.165V9.496ZM394.169 12.328C394.713 12.328 395.121 12.24 395.393 12.064C395.665 11.888 395.801 11.612 395.801 11.236C395.801 10.86 395.677 10.584 395.429 10.408C395.181 10.224 394.789 10.132 394.253 10.132H392.165V12.328H394.169ZM401.492 13.06C400.884 13.06 400.336 12.924 399.848 12.652C399.36 12.372 398.976 11.988 398.696 11.5C398.416 11.012 398.276 10.46 398.276 9.844C398.276 9.228 398.416 8.676 398.696 8.188C398.976 7.7 399.36 7.32 399.848 7.048C400.336 6.776 400.884 6.64 401.492 6.64C402.1 6.64 402.648 6.776 403.136 7.048C403.624 7.32 404.004 7.7 404.276 8.188C404.556 8.676 404.696 9.228 404.696 9.844C404.696 10.46 404.556 11.012 404.276 11.5C404.004 11.988 403.624 12.372 403.136 12.652C402.648 12.924 402.1 13.06 401.492 13.06ZM401.492 12.304C401.94 12.304 402.34 12.204 402.692 12.004C403.052 11.796 403.332 11.504 403.532 11.128C403.732 10.752 403.832 10.324 403.832 9.844C403.832 9.364 403.732 8.936 403.532 8.56C403.332 8.184 403.052 7.896 402.692 7.696C402.34 7.488 401.94 7.384 401.492 7.384C401.044 7.384 400.64 7.488 400.28 7.696C399.928 7.896 399.648 8.184 399.44 8.56C399.24 8.936 399.14 9.364 399.14 9.844C399.14 10.324 399.24 10.752 399.44 11.128C399.648 11.504 399.928 11.796 400.28 12.004C400.64 12.204 401.044 12.304 401.492 12.304ZM406.767 6.688H407.619V11.704L411.831 6.688H412.587V13H411.735V7.984L407.535 13H406.767V6.688ZM422.334 6.688V13H421.554V8.008L418.998 12.232H418.614L416.058 7.996V13H415.278V6.688H416.142L418.818 11.236L421.542 6.688H422.334ZM425.009 6.688H425.861V11.704L430.073 6.688H430.829V13H429.977V7.984L425.777 13H425.009V6.688ZM439.551 13.06C438.927 13.06 438.367 12.924 437.871 12.652C437.383 12.38 436.999 12 436.719 11.512C436.439 11.016 436.299 10.46 436.299 9.844C436.299 9.228 436.439 8.676 436.719 8.188C436.999 7.7 437.383 7.32 437.871 7.048C438.367 6.776 438.927 6.64 439.551 6.64C440.095 6.64 440.579 6.748 441.003 6.964C441.435 7.172 441.775 7.48 442.023 7.888L441.387 8.32C441.179 8.008 440.915 7.776 440.595 7.624C440.275 7.464 439.927 7.384 439.551 7.384C439.095 7.384 438.683 7.488 438.315 7.696C437.955 7.896 437.671 8.184 437.463 8.56C437.263 8.936 437.163 9.364 437.163 9.844C437.163 10.332 437.263 10.764 437.463 11.14C437.671 11.508 437.955 11.796 438.315 12.004C438.683 12.204 439.095 12.304 439.551 12.304C439.927 12.304 440.275 12.228 440.595 12.076C440.915 11.924 441.179 11.692 441.387 11.38L442.023 11.812C441.775 12.22 441.435 12.532 441.003 12.748C440.571 12.956 440.087 13.06 439.551 13.06ZM448.246 7.444H445.858V13H445.006V7.444H442.618V6.688H448.246V7.444ZM452.98 6.64C453.572 6.64 454.108 6.776 454.588 7.048C455.068 7.312 455.444 7.688 455.716 8.176C455.988 8.664 456.124 9.22 456.124 9.844C456.124 10.476 455.988 11.036 455.716 11.524C455.444 12.012 455.068 12.392 454.588 12.664C454.116 12.928 453.58 13.06 452.98 13.06C452.468 13.06 452.004 12.956 451.588 12.748C451.18 12.532 450.844 12.22 450.58 11.812V15.328H449.728V6.688H450.544V7.936C450.8 7.52 451.136 7.2 451.552 6.976C451.976 6.752 452.452 6.64 452.98 6.64ZM452.92 12.304C453.36 12.304 453.76 12.204 454.12 12.004C454.48 11.796 454.76 11.504 454.96 11.128C455.168 10.752 455.272 10.324 455.272 9.844C455.272 9.364 455.168 8.94 454.96 8.572C454.76 8.196 454.48 7.904 454.12 7.696C453.76 7.488 453.36 7.384 452.92 7.384C452.472 7.384 452.068 7.488 451.708 7.696C451.356 7.904 451.076 8.196 450.868 8.572C450.668 8.94 450.568 9.364 450.568 9.844C450.568 10.324 450.668 10.752 450.868 11.128C451.076 11.504 451.356 11.796 451.708 12.004C452.068 12.204 452.472 12.304 452.92 12.304ZM460.341 6.64C461.165 6.64 461.797 6.848 462.237 7.264C462.677 7.672 462.897 8.28 462.897 9.088V13H462.081V12.016C461.889 12.344 461.605 12.6 461.229 12.784C460.861 12.968 460.421 13.06 459.909 13.06C459.205 13.06 458.645 12.892 458.229 12.556C457.813 12.22 457.605 11.776 457.605 11.224C457.605 10.688 457.797 10.256 458.181 9.928C458.573 9.6 459.193 9.436 460.041 9.436H462.045V9.052C462.045 8.508 461.893 8.096 461.589 7.816C461.285 7.528 460.841 7.384 460.257 7.384C459.857 7.384 459.473 7.452 459.105 7.588C458.737 7.716 458.421 7.896 458.157 8.128L457.773 7.492C458.093 7.22 458.477 7.012 458.925 6.868C459.373 6.716 459.845 6.64 460.341 6.64ZM460.041 12.388C460.521 12.388 460.933 12.28 461.277 12.064C461.621 11.84 461.877 11.52 462.045 11.104V10.072H460.065C458.985 10.072 458.445 10.448 458.445 11.2C458.445 11.568 458.585 11.86 458.865 12.076C459.145 12.284 459.537 12.388 460.041 12.388ZM469.363 13L467.359 10.36L465.343 13H464.383L466.879 9.76L464.503 6.688H465.463L467.359 9.16L469.255 6.688H470.191L467.815 9.76L470.335 13H469.363ZM474.036 6.64C474.86 6.64 475.492 6.848 475.932 7.264C476.372 7.672 476.592 8.28 476.592 9.088V13H475.776V12.016C475.584 12.344 475.3 12.6 474.924 12.784C474.556 12.968 474.116 13.06 473.604 13.06C472.9 13.06 472.34 12.892 471.924 12.556C471.508 12.22 471.3 11.776 471.3 11.224C471.3 10.688 471.492 10.256 471.876 9.928C472.268 9.6 472.888 9.436 473.736 9.436H475.74V9.052C475.74 8.508 475.588 8.096 475.284 7.816C474.98 7.528 474.536 7.384 473.952 7.384C473.552 7.384 473.168 7.452 472.8 7.588C472.432 7.716 472.116 7.896 471.852 8.128L471.468 7.492C471.788 7.22 472.172 7.012 472.62 6.868C473.068 6.716 473.54 6.64 474.036 6.64ZM473.736 12.388C474.216 12.388 474.628 12.28 474.972 12.064C475.316 11.84 475.572 11.52 475.74 11.104V10.072H473.76C472.68 10.072 472.14 10.448 472.14 11.2C472.14 11.568 472.28 11.86 472.56 12.076C472.84 12.284 473.232 12.388 473.736 12.388ZM486.166 6.688V13H485.386V8.008L482.83 12.232H482.446L479.89 7.996V13H479.11V6.688H479.974L482.65 11.236L485.374 6.688H486.166ZM488.841 6.688H489.693V11.704L493.905 6.688H494.661V13H493.809V7.984L489.609 13H488.841V6.688Z" fill="#333333" fill-opacity="0.7"/>
<defs>
<clipPath id="clip0_4492_1233">
<rect width="16" height="16" fill="white" transform="matrix(0 1 1 0 55 1)"/>
</clipPath>
<clipPath id="clip1_4492_1233">
<rect width="16" height="16" fill="white" transform="matrix(0 1 1 0 114 1)"/>
</clipPath>
</defs>
</svg>
